<mxfile host="app.diagrams.net" modified="2022-02-17T01:53:58.685Z" agent="5.0 (Windows NT 10.0; Win64; x64) AppleWebKit/537.36 (KHTML, like Gecko) Chrome/98.0.4758.80 Safari/537.36 Edg/98.0.1108.43" etag="75QDSOvsU4k2EE7RHEDa" version="16.5.5" type="github">
  <diagram id="t6b9rKnDIsS_C2fRlYH6" name="Page-1">
    <mxGraphModel dx="1199" dy="722" grid="1" gridSize="10" guides="1" tooltips="1" connect="1" arrows="1" fold="1" page="1" pageScale="1" pageWidth="827" pageHeight="1169" math="0" shadow="0">
      <root>
        <mxCell id="0" />
        <mxCell id="1" parent="0" />
        <mxCell id="UxuYxFG4b6_E9TaE2Zh3-1" value="" style="endArrow=none;dashed=1;html=1;dashPattern=1 3;strokeWidth=2;rounded=0;" edge="1" parent="1">
          <mxGeometry width="50" height="50" relative="1" as="geometry">
            <mxPoint x="10" y="360" as="sourcePoint" />
            <mxPoint x="520" y="360" as="targetPoint" />
          </mxGeometry>
        </mxCell>
        <mxCell id="UxuYxFG4b6_E9TaE2Zh3-3" value="Boost" style="rounded=1;whiteSpace=wrap;html=1;fillColor=#60a917;fontColor=#ffffff;strokeColor=#2D7600;" vertex="1" parent="1">
          <mxGeometry x="270" y="420" width="120" height="60" as="geometry" />
        </mxCell>
        <mxCell id="UxuYxFG4b6_E9TaE2Zh3-4" value="MySql" style="shape=cylinder3;whiteSpace=wrap;html=1;boundedLbl=1;backgroundOutline=1;size=15;fillColor=#60a917;fontColor=#ffffff;strokeColor=#2D7600;" vertex="1" parent="1">
          <mxGeometry x="110" y="422.5" width="70" height="55" as="geometry" />
        </mxCell>
        <mxCell id="UxuYxFG4b6_E9TaE2Zh3-9" value="Cloud server" style="rounded=1;whiteSpace=wrap;html=1;fontSize=12;fillColor=#1ba1e2;fontColor=#ffffff;strokeColor=#006EAF;" vertex="1" parent="1">
          <mxGeometry x="270" y="240" width="120" height="60" as="geometry" />
        </mxCell>
        <mxCell id="UxuYxFG4b6_E9TaE2Zh3-10" value="" style="endArrow=classic;html=1;rounded=0;fontSize=12;fillColor=#60a917;strokeColor=#2D7600;exitX=0.5;exitY=1;exitDx=0;exitDy=0;entryX=0.5;entryY=0;entryDx=0;entryDy=0;strokeWidth=2;" edge="1" parent="1" source="UxuYxFG4b6_E9TaE2Zh3-9" target="UxuYxFG4b6_E9TaE2Zh3-3">
          <mxGeometry width="50" height="50" relative="1" as="geometry">
            <mxPoint x="340" y="410" as="sourcePoint" />
            <mxPoint x="390" y="360" as="targetPoint" />
          </mxGeometry>
        </mxCell>
        <mxCell id="UxuYxFG4b6_E9TaE2Zh3-12" value="" style="endArrow=classic;html=1;rounded=0;fontSize=12;fillColor=#60a917;strokeColor=#2D7600;exitX=0;exitY=0.5;exitDx=0;exitDy=0;entryX=1;entryY=0.5;entryDx=0;entryDy=0;strokeWidth=2;entryPerimeter=0;" edge="1" parent="1" source="UxuYxFG4b6_E9TaE2Zh3-3" target="UxuYxFG4b6_E9TaE2Zh3-4">
          <mxGeometry width="50" height="50" relative="1" as="geometry">
            <mxPoint x="310" y="310" as="sourcePoint" />
            <mxPoint x="310" y="430" as="targetPoint" />
          </mxGeometry>
        </mxCell>
        <mxCell id="UxuYxFG4b6_E9TaE2Zh3-13" value="控制参数" style="whiteSpace=wrap;html=1;shape=mxgraph.basic.document;fontSize=12;fillColor=#f8cecc;strokeColor=#b85450;" vertex="1" parent="1">
          <mxGeometry x="260" y="320" width="55" height="30" as="geometry" />
        </mxCell>
        <mxCell id="UxuYxFG4b6_E9TaE2Zh3-18" value="①编辑控制参数" style="text;html=1;strokeColor=none;fillColor=none;align=center;verticalAlign=middle;whiteSpace=wrap;rounded=0;fontSize=12;fontColor=#000000;" vertex="1" parent="1">
          <mxGeometry x="280" y="210" width="100" height="30" as="geometry" />
        </mxCell>
        <mxCell id="UxuYxFG4b6_E9TaE2Zh3-19" value="②异步拉取控制参数" style="text;html=1;strokeColor=none;fillColor=none;align=center;verticalAlign=middle;whiteSpace=wrap;rounded=0;fontSize=12;fontColor=#000000;" vertex="1" parent="1">
          <mxGeometry x="340" y="380" width="120" height="30" as="geometry" />
        </mxCell>
        <mxCell id="UxuYxFG4b6_E9TaE2Zh3-20" value="③更新控制参数" style="text;html=1;strokeColor=none;fillColor=none;align=center;verticalAlign=middle;whiteSpace=wrap;rounded=0;fontSize=12;fontColor=#000000;" vertex="1" parent="1">
          <mxGeometry x="270" y="480" width="120" height="30" as="geometry" />
        </mxCell>
        <mxCell id="UxuYxFG4b6_E9TaE2Zh3-21" value="④持久化到mysql" style="text;html=1;strokeColor=none;fillColor=none;align=center;verticalAlign=middle;whiteSpace=wrap;rounded=0;fontSize=12;fontColor=#000000;" vertex="1" parent="1">
          <mxGeometry x="160" y="400" width="120" height="30" as="geometry" />
        </mxCell>
        <mxCell id="UxuYxFG4b6_E9TaE2Zh3-22" value="Cloud" style="text;html=1;strokeColor=none;fillColor=none;align=center;verticalAlign=middle;whiteSpace=wrap;rounded=0;fontSize=12;fontColor=#000000;" vertex="1" parent="1">
          <mxGeometry x="20" y="320" width="60" height="30" as="geometry" />
        </mxCell>
        <mxCell id="UxuYxFG4b6_E9TaE2Zh3-23" value="Local" style="text;html=1;strokeColor=none;fillColor=none;align=center;verticalAlign=middle;whiteSpace=wrap;rounded=0;fontSize=12;fontColor=#000000;" vertex="1" parent="1">
          <mxGeometry x="20" y="370" width="60" height="30" as="geometry" />
        </mxCell>
        <mxCell id="UxuYxFG4b6_E9TaE2Zh3-24" value="" style="endArrow=none;dashed=1;html=1;dashPattern=1 3;strokeWidth=2;rounded=0;" edge="1" parent="1">
          <mxGeometry width="50" height="50" relative="1" as="geometry">
            <mxPoint x="695" y="357.4999999999999" as="sourcePoint" />
            <mxPoint x="1205" y="357.4999999999999" as="targetPoint" />
          </mxGeometry>
        </mxCell>
        <mxCell id="UxuYxFG4b6_E9TaE2Zh3-25" value="Boost" style="rounded=1;whiteSpace=wrap;html=1;fillColor=#60a917;fontColor=#ffffff;strokeColor=#2D7600;" vertex="1" parent="1">
          <mxGeometry x="955" y="417.5" width="120" height="60" as="geometry" />
        </mxCell>
        <mxCell id="UxuYxFG4b6_E9TaE2Zh3-26" value="MySql" style="shape=cylinder3;whiteSpace=wrap;html=1;boundedLbl=1;backgroundOutline=1;size=15;fillColor=#60a917;fontColor=#ffffff;strokeColor=#2D7600;" vertex="1" parent="1">
          <mxGeometry x="1165" y="420" width="70" height="55" as="geometry" />
        </mxCell>
        <mxCell id="UxuYxFG4b6_E9TaE2Zh3-27" value="Cloud server" style="rounded=1;whiteSpace=wrap;html=1;fontSize=12;fillColor=#1ba1e2;fontColor=#ffffff;strokeColor=#006EAF;" vertex="1" parent="1">
          <mxGeometry x="955" y="237.5" width="120" height="60" as="geometry" />
        </mxCell>
        <mxCell id="UxuYxFG4b6_E9TaE2Zh3-28" value="" style="endArrow=classic;html=1;rounded=0;fontSize=12;fillColor=#60a917;strokeColor=#2D7600;entryX=0.5;entryY=1;entryDx=0;entryDy=0;strokeWidth=2;exitX=0.5;exitY=0;exitDx=0;exitDy=0;" edge="1" parent="1" source="UxuYxFG4b6_E9TaE2Zh3-25" target="UxuYxFG4b6_E9TaE2Zh3-27">
          <mxGeometry width="50" height="50" relative="1" as="geometry">
            <mxPoint x="985" y="387.5" as="sourcePoint" />
            <mxPoint x="1075" y="357.5" as="targetPoint" />
          </mxGeometry>
        </mxCell>
        <mxCell id="UxuYxFG4b6_E9TaE2Zh3-30" value="告警" style="whiteSpace=wrap;html=1;shape=mxgraph.basic.document;fontSize=12;fillColor=#f8cecc;strokeColor=#b85450;" vertex="1" parent="1">
          <mxGeometry x="725" y="427.5" width="55" height="30" as="geometry" />
        </mxCell>
        <mxCell id="UxuYxFG4b6_E9TaE2Zh3-31" value="⑤云端存储" style="text;html=1;strokeColor=none;fillColor=none;align=center;verticalAlign=middle;whiteSpace=wrap;rounded=0;fontSize=12;fontColor=#000000;" vertex="1" parent="1">
          <mxGeometry x="965" y="207.5" width="100" height="30" as="geometry" />
        </mxCell>
        <mxCell id="UxuYxFG4b6_E9TaE2Zh3-35" value="Cloud" style="text;html=1;strokeColor=none;fillColor=none;align=center;verticalAlign=middle;whiteSpace=wrap;rounded=0;fontSize=12;fontColor=#000000;" vertex="1" parent="1">
          <mxGeometry x="705" y="317.5" width="60" height="30" as="geometry" />
        </mxCell>
        <mxCell id="UxuYxFG4b6_E9TaE2Zh3-36" value="Local" style="text;html=1;strokeColor=none;fillColor=none;align=center;verticalAlign=middle;whiteSpace=wrap;rounded=0;fontSize=12;fontColor=#000000;" vertex="1" parent="1">
          <mxGeometry x="705" y="367.5" width="60" height="30" as="geometry" />
        </mxCell>
        <mxCell id="UxuYxFG4b6_E9TaE2Zh3-37" value="" style="endArrow=classic;html=1;rounded=0;fontSize=12;fillColor=#60a917;strokeColor=#2D7600;exitX=0;exitY=0.5;exitDx=0;exitDy=0;entryX=1;entryY=0.5;entryDx=0;entryDy=0;strokeWidth=2;exitPerimeter=0;" edge="1" parent="1" source="UxuYxFG4b6_E9TaE2Zh3-26" target="UxuYxFG4b6_E9TaE2Zh3-25">
          <mxGeometry width="50" height="50" relative="1" as="geometry">
            <mxPoint x="955" y="447.5" as="sourcePoint" />
            <mxPoint x="855" y="447.5" as="targetPoint" />
          </mxGeometry>
        </mxCell>
        <mxCell id="UxuYxFG4b6_E9TaE2Zh3-38" value="加载控制参数" style="text;html=1;strokeColor=none;fillColor=none;align=center;verticalAlign=middle;whiteSpace=wrap;rounded=0;fontSize=12;fontColor=#000000;" vertex="1" parent="1">
          <mxGeometry x="1075" y="417.5" width="100" height="30" as="geometry" />
        </mxCell>
        <mxCell id="UxuYxFG4b6_E9TaE2Zh3-39" value="控制参数下发" style="text;html=1;strokeColor=none;fillColor=none;align=center;verticalAlign=middle;whiteSpace=wrap;rounded=0;fontSize=12;fontColor=#000000;fontStyle=1" vertex="1" parent="1">
          <mxGeometry x="20" y="210" width="90" height="30" as="geometry" />
        </mxCell>
        <mxCell id="UxuYxFG4b6_E9TaE2Zh3-40" value="告警数据反馈" style="text;html=1;strokeColor=none;fillColor=none;align=center;verticalAlign=middle;whiteSpace=wrap;rounded=0;fontSize=12;fontColor=#000000;fontStyle=1" vertex="1" parent="1">
          <mxGeometry x="705" y="207.5" width="90" height="30" as="geometry" />
        </mxCell>
        <mxCell id="UxuYxFG4b6_E9TaE2Zh3-44" value="①定期（延迟5min）拉取原始告警" style="text;html=1;strokeColor=none;fillColor=none;align=center;verticalAlign=middle;whiteSpace=wrap;rounded=0;fontSize=12;fontColor=#000000;" vertex="1" parent="1">
          <mxGeometry x="725" y="397.5" width="190" height="30" as="geometry" />
        </mxCell>
        <mxCell id="UxuYxFG4b6_E9TaE2Zh3-45" value="④组装上报数据&lt;br&gt;字段裁剪" style="text;html=1;strokeColor=none;fillColor=none;align=center;verticalAlign=middle;whiteSpace=wrap;rounded=0;fontSize=12;fontColor=#000000;" vertex="1" parent="1">
          <mxGeometry x="1005" y="367.5" width="120" height="30" as="geometry" />
        </mxCell>
        <mxCell id="UxuYxFG4b6_E9TaE2Zh3-84" style="edgeStyle=orthogonalEdgeStyle;curved=1;rounded=0;orthogonalLoop=1;jettySize=auto;html=1;exitX=0.711;exitY=-0.007;exitDx=0;exitDy=0;exitPerimeter=0;entryX=0;entryY=0.75;entryDx=0;entryDy=0;fontSize=12;fontColor=#000000;strokeWidth=2;fillColor=#60a917;strokeColor=#2D7600;" edge="1" parent="1" source="UxuYxFG4b6_E9TaE2Zh3-46" target="UxuYxFG4b6_E9TaE2Zh3-25">
          <mxGeometry relative="1" as="geometry" />
        </mxCell>
        <mxCell id="UxuYxFG4b6_E9TaE2Zh3-46" value="ES" style="shape=cylinder3;whiteSpace=wrap;html=1;boundedLbl=1;backgroundOutline=1;size=15;fillColor=#60a917;fontColor=#ffffff;strokeColor=#2D7600;" vertex="1" parent="1">
          <mxGeometry x="725" y="507.5" width="70" height="55" as="geometry" />
        </mxCell>
        <mxCell id="UxuYxFG4b6_E9TaE2Zh3-47" value="" style="endArrow=classic;html=1;rounded=0;fontSize=12;fillColor=#60a917;strokeColor=#2D7600;exitX=0.5;exitY=0;exitDx=0;exitDy=0;entryX=0;entryY=0.25;entryDx=0;entryDy=0;strokeWidth=2;exitPerimeter=0;edgeStyle=orthogonalEdgeStyle;curved=1;" edge="1" parent="1" source="UxuYxFG4b6_E9TaE2Zh3-46" target="UxuYxFG4b6_E9TaE2Zh3-25">
          <mxGeometry width="50" height="50" relative="1" as="geometry">
            <mxPoint x="1175" y="457.5" as="sourcePoint" />
            <mxPoint x="1085" y="457.5" as="targetPoint" />
            <Array as="points">
              <mxPoint x="760" y="432.5" />
            </Array>
          </mxGeometry>
        </mxCell>
        <mxCell id="UxuYxFG4b6_E9TaE2Zh3-48" value="②上传控制（熔断+去重）" style="text;html=1;strokeColor=none;fillColor=none;align=center;verticalAlign=middle;whiteSpace=wrap;rounded=0;fontSize=12;fontColor=#000000;" vertex="1" parent="1">
          <mxGeometry x="940" y="477.5" width="150" height="30" as="geometry" />
        </mxCell>
        <mxCell id="UxuYxFG4b6_E9TaE2Zh3-50" value="告警+日志" style="whiteSpace=wrap;html=1;shape=mxgraph.basic.document;fontSize=12;fillColor=#f8cecc;strokeColor=#b85450;" vertex="1" parent="1">
          <mxGeometry x="1020" y="317.5" width="65" height="30" as="geometry" />
        </mxCell>
        <mxCell id="UxuYxFG4b6_E9TaE2Zh3-51" value="日志" style="whiteSpace=wrap;html=1;shape=mxgraph.basic.document;fontSize=12;fillColor=#f8cecc;strokeColor=#b85450;" vertex="1" parent="1">
          <mxGeometry x="805" y="487.5" width="55" height="30" as="geometry" />
        </mxCell>
        <mxCell id="UxuYxFG4b6_E9TaE2Zh3-54" value="" style="endArrow=none;dashed=1;html=1;dashPattern=1 3;strokeWidth=2;rounded=0;" edge="1" parent="1">
          <mxGeometry width="50" height="50" relative="1" as="geometry">
            <mxPoint x="10" y="730" as="sourcePoint" />
            <mxPoint x="520" y="730" as="targetPoint" />
          </mxGeometry>
        </mxCell>
        <mxCell id="UxuYxFG4b6_E9TaE2Zh3-55" value="Boost" style="rounded=1;whiteSpace=wrap;html=1;fillColor=#60a917;fontColor=#ffffff;strokeColor=#2D7600;" vertex="1" parent="1">
          <mxGeometry x="270" y="790" width="120" height="60" as="geometry" />
        </mxCell>
        <mxCell id="UxuYxFG4b6_E9TaE2Zh3-57" value="Cloud server" style="rounded=1;whiteSpace=wrap;html=1;fontSize=12;fillColor=#1ba1e2;fontColor=#ffffff;strokeColor=#006EAF;" vertex="1" parent="1">
          <mxGeometry x="270" y="610" width="120" height="60" as="geometry" />
        </mxCell>
        <mxCell id="UxuYxFG4b6_E9TaE2Zh3-58" value="" style="endArrow=classic;html=1;rounded=0;fontSize=12;fillColor=#60a917;strokeColor=#2D7600;exitX=0.5;exitY=1;exitDx=0;exitDy=0;entryX=0.5;entryY=0;entryDx=0;entryDy=0;strokeWidth=2;" edge="1" parent="1" source="UxuYxFG4b6_E9TaE2Zh3-57" target="UxuYxFG4b6_E9TaE2Zh3-55">
          <mxGeometry width="50" height="50" relative="1" as="geometry">
            <mxPoint x="340" y="780" as="sourcePoint" />
            <mxPoint x="390" y="730" as="targetPoint" />
          </mxGeometry>
        </mxCell>
        <mxCell id="UxuYxFG4b6_E9TaE2Zh3-60" value="云端告警" style="whiteSpace=wrap;html=1;shape=mxgraph.basic.document;fontSize=12;fillColor=#f8cecc;strokeColor=#b85450;" vertex="1" parent="1">
          <mxGeometry x="260" y="690" width="55" height="30" as="geometry" />
        </mxCell>
        <mxCell id="UxuYxFG4b6_E9TaE2Zh3-61" value="①人工确认告警，并添加研判字段" style="text;html=1;strokeColor=none;fillColor=none;align=center;verticalAlign=middle;whiteSpace=wrap;rounded=0;fontSize=12;fontColor=#000000;" vertex="1" parent="1">
          <mxGeometry x="280" y="580" width="100" height="30" as="geometry" />
        </mxCell>
        <mxCell id="UxuYxFG4b6_E9TaE2Zh3-62" value="②异步拉取云端告警" style="text;html=1;strokeColor=none;fillColor=none;align=center;verticalAlign=middle;whiteSpace=wrap;rounded=0;fontSize=12;fontColor=#000000;" vertex="1" parent="1">
          <mxGeometry x="340" y="750" width="120" height="30" as="geometry" />
        </mxCell>
        <mxCell id="UxuYxFG4b6_E9TaE2Zh3-63" value="③发送到指定topic" style="text;html=1;strokeColor=none;fillColor=none;align=center;verticalAlign=middle;whiteSpace=wrap;rounded=0;fontSize=12;fontColor=#000000;" vertex="1" parent="1">
          <mxGeometry x="150" y="790" width="120" height="30" as="geometry" />
        </mxCell>
        <mxCell id="UxuYxFG4b6_E9TaE2Zh3-65" value="Cloud" style="text;html=1;strokeColor=none;fillColor=none;align=center;verticalAlign=middle;whiteSpace=wrap;rounded=0;fontSize=12;fontColor=#000000;" vertex="1" parent="1">
          <mxGeometry x="20" y="690" width="60" height="30" as="geometry" />
        </mxCell>
        <mxCell id="UxuYxFG4b6_E9TaE2Zh3-66" value="Local" style="text;html=1;strokeColor=none;fillColor=none;align=center;verticalAlign=middle;whiteSpace=wrap;rounded=0;fontSize=12;fontColor=#000000;" vertex="1" parent="1">
          <mxGeometry x="20" y="740" width="60" height="30" as="geometry" />
        </mxCell>
        <mxCell id="UxuYxFG4b6_E9TaE2Zh3-67" value="云端告警下发" style="text;html=1;strokeColor=none;fillColor=none;align=center;verticalAlign=middle;whiteSpace=wrap;rounded=0;fontSize=12;fontColor=#000000;fontStyle=1" vertex="1" parent="1">
          <mxGeometry x="20" y="580" width="90" height="30" as="geometry" />
        </mxCell>
        <mxCell id="UxuYxFG4b6_E9TaE2Zh3-68" value="ES" style="shape=cylinder3;whiteSpace=wrap;html=1;boundedLbl=1;backgroundOutline=1;size=15;fillColor=#60a917;fontColor=#ffffff;strokeColor=#2D7600;" vertex="1" parent="1">
          <mxGeometry x="480" y="795" width="70" height="55" as="geometry" />
        </mxCell>
        <mxCell id="UxuYxFG4b6_E9TaE2Zh3-69" value="DV" style="rounded=1;whiteSpace=wrap;html=1;fillColor=#60a917;fontColor=#ffffff;strokeColor=#2D7600;" vertex="1" parent="1">
          <mxGeometry x="60" y="940" width="120" height="60" as="geometry" />
        </mxCell>
        <mxCell id="UxuYxFG4b6_E9TaE2Zh3-70" value="Kafka" style="rounded=0;whiteSpace=wrap;html=1;fontSize=12;fillColor=#fff2cc;strokeColor=#d6b656;" vertex="1" parent="1">
          <mxGeometry x="90" y="805" width="60" height="30" as="geometry" />
        </mxCell>
        <mxCell id="UxuYxFG4b6_E9TaE2Zh3-71" value="" style="endArrow=classic;html=1;rounded=0;fontSize=12;fillColor=#60a917;strokeColor=#2D7600;exitX=0;exitY=0.5;exitDx=0;exitDy=0;entryX=1;entryY=0.5;entryDx=0;entryDy=0;strokeWidth=2;" edge="1" parent="1" source="UxuYxFG4b6_E9TaE2Zh3-55" target="UxuYxFG4b6_E9TaE2Zh3-70">
          <mxGeometry width="50" height="50" relative="1" as="geometry">
            <mxPoint x="340" y="680" as="sourcePoint" />
            <mxPoint x="340" y="800" as="targetPoint" />
          </mxGeometry>
        </mxCell>
        <mxCell id="UxuYxFG4b6_E9TaE2Zh3-72" value="" style="endArrow=classic;html=1;rounded=0;fontSize=12;fillColor=#60a917;strokeColor=#2D7600;exitX=0.5;exitY=1;exitDx=0;exitDy=0;entryX=0.5;entryY=0;entryDx=0;entryDy=0;strokeWidth=2;" edge="1" parent="1" source="UxuYxFG4b6_E9TaE2Zh3-70" target="UxuYxFG4b6_E9TaE2Zh3-69">
          <mxGeometry width="50" height="50" relative="1" as="geometry">
            <mxPoint x="350" y="690" as="sourcePoint" />
            <mxPoint x="350" y="810" as="targetPoint" />
          </mxGeometry>
        </mxCell>
        <mxCell id="UxuYxFG4b6_E9TaE2Zh3-73" value="④基于内置规则&lt;br&gt;采集并解析" style="text;html=1;strokeColor=none;fillColor=none;align=center;verticalAlign=middle;whiteSpace=wrap;rounded=0;fontSize=12;fontColor=#000000;" vertex="1" parent="1">
          <mxGeometry x="100" y="860" width="140" height="30" as="geometry" />
        </mxCell>
        <mxCell id="UxuYxFG4b6_E9TaE2Zh3-74" value="Sae-core" style="rounded=1;whiteSpace=wrap;html=1;fillColor=#60a917;fontColor=#ffffff;strokeColor=#2D7600;" vertex="1" parent="1">
          <mxGeometry x="270" y="940" width="120" height="60" as="geometry" />
        </mxCell>
        <mxCell id="UxuYxFG4b6_E9TaE2Zh3-75" value="" style="endArrow=classic;html=1;rounded=0;fontSize=12;fillColor=#60a917;strokeColor=#2D7600;exitX=1;exitY=0.5;exitDx=0;exitDy=0;entryX=0;entryY=0.5;entryDx=0;entryDy=0;strokeWidth=2;" edge="1" parent="1" source="UxuYxFG4b6_E9TaE2Zh3-69" target="UxuYxFG4b6_E9TaE2Zh3-74">
          <mxGeometry width="50" height="50" relative="1" as="geometry">
            <mxPoint x="130" y="844.9999999999998" as="sourcePoint" />
            <mxPoint x="130" y="950" as="targetPoint" />
          </mxGeometry>
        </mxCell>
        <mxCell id="UxuYxFG4b6_E9TaE2Zh3-76" value="⑤基于内置规则转化告警" style="text;html=1;strokeColor=none;fillColor=none;align=center;verticalAlign=middle;whiteSpace=wrap;rounded=0;fontSize=12;fontColor=#000000;" vertex="1" parent="1">
          <mxGeometry x="250" y="900" width="180" height="30" as="geometry" />
        </mxCell>
        <mxCell id="UxuYxFG4b6_E9TaE2Zh3-77" value="Incident" style="rounded=1;whiteSpace=wrap;html=1;fillColor=#60a917;fontColor=#ffffff;strokeColor=#2D7600;" vertex="1" parent="1">
          <mxGeometry x="480" y="940" width="120" height="60" as="geometry" />
        </mxCell>
        <mxCell id="UxuYxFG4b6_E9TaE2Zh3-78" value="" style="endArrow=classic;html=1;rounded=0;fontSize=12;fillColor=#60a917;strokeColor=#2D7600;exitX=1;exitY=0.5;exitDx=0;exitDy=0;entryX=0;entryY=0.5;entryDx=0;entryDy=0;strokeWidth=2;" edge="1" parent="1" source="UxuYxFG4b6_E9TaE2Zh3-74" target="UxuYxFG4b6_E9TaE2Zh3-77">
          <mxGeometry width="50" height="50" relative="1" as="geometry">
            <mxPoint x="190" y="980" as="sourcePoint" />
            <mxPoint x="280" y="980" as="targetPoint" />
          </mxGeometry>
        </mxCell>
        <mxCell id="UxuYxFG4b6_E9TaE2Zh3-79" value="" style="endArrow=classic;html=1;rounded=0;fontSize=12;fillColor=#60a917;strokeColor=#2D7600;exitX=1;exitY=0.5;exitDx=0;exitDy=0;entryX=1;entryY=0;entryDx=0;entryDy=33.75;strokeWidth=2;entryPerimeter=0;edgeStyle=orthogonalEdgeStyle;curved=1;" edge="1" parent="1" source="UxuYxFG4b6_E9TaE2Zh3-77" target="UxuYxFG4b6_E9TaE2Zh3-68">
          <mxGeometry width="50" height="50" relative="1" as="geometry">
            <mxPoint x="400" y="980" as="sourcePoint" />
            <mxPoint x="490" y="980" as="targetPoint" />
            <Array as="points">
              <mxPoint x="640" y="970" />
              <mxPoint x="640" y="829" />
            </Array>
          </mxGeometry>
        </mxCell>
        <mxCell id="UxuYxFG4b6_E9TaE2Zh3-80" value="⑥生成云端告警和安全事件" style="text;html=1;strokeColor=none;fillColor=none;align=center;verticalAlign=middle;whiteSpace=wrap;rounded=0;fontSize=12;fontColor=#000000;" vertex="1" parent="1">
          <mxGeometry x="465" y="900" width="150" height="30" as="geometry" />
        </mxCell>
        <mxCell id="UxuYxFG4b6_E9TaE2Zh3-85" value="③拉取原始日志" style="text;html=1;strokeColor=none;fillColor=none;align=center;verticalAlign=middle;whiteSpace=wrap;rounded=0;fontSize=12;fontColor=#000000;" vertex="1" parent="1">
          <mxGeometry x="790" y="517.5" width="115" height="30" as="geometry" />
        </mxCell>
        <mxCell id="UxuYxFG4b6_E9TaE2Zh3-89" value="" style="endArrow=none;dashed=1;html=1;dashPattern=1 3;strokeWidth=2;rounded=0;" edge="1" parent="1">
          <mxGeometry width="50" height="50" relative="1" as="geometry">
            <mxPoint x="695" y="730" as="sourcePoint" />
            <mxPoint x="1204.9999999999998" y="730" as="targetPoint" />
          </mxGeometry>
        </mxCell>
        <mxCell id="UxuYxFG4b6_E9TaE2Zh3-90" value="Boost" style="rounded=1;whiteSpace=wrap;html=1;fillColor=#60a917;fontColor=#ffffff;strokeColor=#2D7600;" vertex="1" parent="1">
          <mxGeometry x="955" y="790" width="120" height="60" as="geometry" />
        </mxCell>
        <mxCell id="UxuYxFG4b6_E9TaE2Zh3-91" value="Cloud server" style="rounded=1;whiteSpace=wrap;html=1;fontSize=12;fillColor=#1ba1e2;fontColor=#ffffff;strokeColor=#006EAF;" vertex="1" parent="1">
          <mxGeometry x="955" y="610" width="120" height="60" as="geometry" />
        </mxCell>
        <mxCell id="UxuYxFG4b6_E9TaE2Zh3-92" value="" style="endArrow=classic;html=1;rounded=0;fontSize=12;fillColor=#60a917;strokeColor=#2D7600;exitX=0.5;exitY=1;exitDx=0;exitDy=0;entryX=0.5;entryY=0;entryDx=0;entryDy=0;strokeWidth=2;" edge="1" source="UxuYxFG4b6_E9TaE2Zh3-91" target="UxuYxFG4b6_E9TaE2Zh3-90" parent="1">
          <mxGeometry width="50" height="50" relative="1" as="geometry">
            <mxPoint x="1025" y="780" as="sourcePoint" />
            <mxPoint x="1075" y="730" as="targetPoint" />
          </mxGeometry>
        </mxCell>
        <mxCell id="UxuYxFG4b6_E9TaE2Zh3-93" value="云端告警" style="whiteSpace=wrap;html=1;shape=mxgraph.basic.document;fontSize=12;fillColor=#f8cecc;strokeColor=#b85450;" vertex="1" parent="1">
          <mxGeometry x="945" y="690" width="55" height="30" as="geometry" />
        </mxCell>
        <mxCell id="UxuYxFG4b6_E9TaE2Zh3-94" value="①人工确认告警，并修改特定告警字段，体现云端研判结果" style="text;html=1;strokeColor=none;fillColor=none;align=center;verticalAlign=middle;whiteSpace=wrap;rounded=0;fontSize=12;fontColor=#000000;" vertex="1" parent="1">
          <mxGeometry x="927.5" y="580" width="175" height="30" as="geometry" />
        </mxCell>
        <mxCell id="UxuYxFG4b6_E9TaE2Zh3-95" value="②异步拉取云端告警" style="text;html=1;strokeColor=none;fillColor=none;align=center;verticalAlign=middle;whiteSpace=wrap;rounded=0;fontSize=12;fontColor=#000000;" vertex="1" parent="1">
          <mxGeometry x="1025" y="750" width="120" height="30" as="geometry" />
        </mxCell>
        <mxCell id="UxuYxFG4b6_E9TaE2Zh3-117" style="edgeStyle=orthogonalEdgeStyle;curved=1;rounded=0;orthogonalLoop=1;jettySize=auto;html=1;entryX=0;entryY=0.5;entryDx=0;entryDy=0;fontSize=12;fontColor=#000000;strokeWidth=2;fillColor=#60a917;strokeColor=#2D7600;" edge="1" parent="1" source="UxuYxFG4b6_E9TaE2Zh3-90" target="UxuYxFG4b6_E9TaE2Zh3-101">
          <mxGeometry relative="1" as="geometry">
            <Array as="points">
              <mxPoint x="850" y="820" />
              <mxPoint x="850" y="960" />
            </Array>
          </mxGeometry>
        </mxCell>
        <mxCell id="UxuYxFG4b6_E9TaE2Zh3-96" value="③发送到alarm topic" style="text;html=1;strokeColor=none;fillColor=none;align=center;verticalAlign=middle;whiteSpace=wrap;rounded=0;fontSize=12;fontColor=#000000;" vertex="1" parent="1">
          <mxGeometry x="742.5" y="820" width="120" height="30" as="geometry" />
        </mxCell>
        <mxCell id="UxuYxFG4b6_E9TaE2Zh3-97" value="Cloud" style="text;html=1;strokeColor=none;fillColor=none;align=center;verticalAlign=middle;whiteSpace=wrap;rounded=0;fontSize=12;fontColor=#000000;" vertex="1" parent="1">
          <mxGeometry x="705" y="690" width="60" height="30" as="geometry" />
        </mxCell>
        <mxCell id="UxuYxFG4b6_E9TaE2Zh3-98" value="Local" style="text;html=1;strokeColor=none;fillColor=none;align=center;verticalAlign=middle;whiteSpace=wrap;rounded=0;fontSize=12;fontColor=#000000;" vertex="1" parent="1">
          <mxGeometry x="705" y="740" width="60" height="30" as="geometry" />
        </mxCell>
        <mxCell id="UxuYxFG4b6_E9TaE2Zh3-99" value="云端告警下发" style="text;html=1;strokeColor=none;fillColor=none;align=center;verticalAlign=middle;whiteSpace=wrap;rounded=0;fontSize=12;fontColor=#000000;fontStyle=1" vertex="1" parent="1">
          <mxGeometry x="705" y="580" width="90" height="30" as="geometry" />
        </mxCell>
        <mxCell id="UxuYxFG4b6_E9TaE2Zh3-100" value="ES" style="shape=cylinder3;whiteSpace=wrap;html=1;boundedLbl=1;backgroundOutline=1;size=15;fillColor=#60a917;fontColor=#ffffff;strokeColor=#2D7600;" vertex="1" parent="1">
          <mxGeometry x="1145" y="847.5" width="70" height="55" as="geometry" />
        </mxCell>
        <mxCell id="UxuYxFG4b6_E9TaE2Zh3-116" style="edgeStyle=orthogonalEdgeStyle;curved=1;rounded=0;orthogonalLoop=1;jettySize=auto;html=1;fontSize=12;fontColor=#000000;strokeWidth=2;fillColor=#60a917;strokeColor=#2D7600;" edge="1" parent="1" source="UxuYxFG4b6_E9TaE2Zh3-101" target="UxuYxFG4b6_E9TaE2Zh3-100">
          <mxGeometry relative="1" as="geometry" />
        </mxCell>
        <mxCell id="UxuYxFG4b6_E9TaE2Zh3-101" value="Incident" style="rounded=1;whiteSpace=wrap;html=1;fillColor=#60a917;fontColor=#ffffff;strokeColor=#2D7600;" vertex="1" parent="1">
          <mxGeometry x="955" y="930" width="120" height="60" as="geometry" />
        </mxCell>
        <mxCell id="UxuYxFG4b6_E9TaE2Zh3-102" value="Kafka" style="rounded=0;whiteSpace=wrap;html=1;fontSize=12;fillColor=#fff2cc;strokeColor=#d6b656;" vertex="1" parent="1">
          <mxGeometry x="820" y="870" width="60" height="30" as="geometry" />
        </mxCell>
        <mxCell id="UxuYxFG4b6_E9TaE2Zh3-108" value="④将云端下发告警存储&lt;br&gt;并生成安全事件" style="text;html=1;strokeColor=none;fillColor=none;align=center;verticalAlign=middle;whiteSpace=wrap;rounded=0;fontSize=12;fontColor=#000000;" vertex="1" parent="1">
          <mxGeometry x="927.5" y="890" width="180" height="30" as="geometry" />
        </mxCell>
        <mxCell id="UxuYxFG4b6_E9TaE2Zh3-114" value="本地补全告警" style="whiteSpace=wrap;html=1;shape=mxgraph.basic.document;fontSize=12;fillColor=#f8cecc;strokeColor=#b85450;" vertex="1" parent="1">
          <mxGeometry x="880" y="790" width="55" height="30" as="geometry" />
        </mxCell>
      </root>
    </mxGraphModel>
  </diagram>
</mxfile>
